<?xml version="1.0" encoding="utf-8"?>
<!-- Generator: Adobe Illustrator 20.1.0, SVG Export Plug-In . SVG Version: 6.00 Build 0)  -->
<svg version="1.1" id="Layer_2" xmlns="http://www.w3.org/2000/svg" xmlns:xlink="http://www.w3.org/1999/xlink" x="0px" y="0px"
	 viewBox="0 0 674.5 120" style="enable-background:new 0 0 674.5 120;" xml:space="preserve">
<style type="text/css">
	.st0{fill:#12A0C4;}
	.st1{fill:#FFFFFF;}
	.st2{fill:#400095;}
</style>
<path id="XMLID_88_" class="st0" d="M674.4,93H468l-14.7,14.7c0,0,0-80.5,0-83.8c0-3.3,2.4-5.5,2.4-5.5L468,6.1h206.4V93z"/>
<path id="XMLID_86_" class="st1" d="M478.9,23.9h11.1l21.9,34.6V23.9h9.8v51.5h-10.4l-22.6-35.7v35.7h-9.8V23.9z"/>
<path id="XMLID_83_" class="st1" d="M530.1,49.6c0-14.6,11.7-26.4,26.3-26.4c14.7,0,26.4,11.8,26.4,26.4c0,14.7-11.7,26.4-26.4,26.4
	C541.8,76.1,530.1,64.3,530.1,49.6z M573,49.6c0-9.2-7.4-16.8-16.6-16.8c-9.2,0-16.6,7.5-16.6,16.8s7.3,16.8,16.6,16.8
	C565.6,66.4,573,58.9,573,49.6z"/>
<path id="XMLID_81_" class="st1" d="M585.2,23.9h10.2l9.6,35.6l10.6-35.6h9.7l10.6,35.5l9.4-35.5h9.9l-14.5,51.5h-9.7l-10.6-35.9
	l-10.6,35.9h-10L585.2,23.9z"/>
<path id="XMLID_48_" class="st2" d="M75.9,6.1h39.5v1.5l-6.3,6.3c-1.5,1.5-2.3,2.7-2.3,5.2v98h-1.5L30.6,49.5V100
	c0,2.4,0.8,3.7,2.3,5.2l6.3,6.3v1.5H-0.4v-1.5l6.3-6.3c1.5-1.5,2.3-2.7,2.3-5.2V1.2h1.5l74.8,67.5V19.1c0-2.4-0.8-3.7-2.3-5.2
	l-6.3-6.3V6.1z M225.9,82.6c0,20.8-14.8,30.4-39.1,30.4h-62.4v-1.5l6.3-6.3c1.5-1.5,2.3-2.7,2.3-5.2V19.1c0-2.4-0.8-3.7-2.3-5.2
	l-6.3-6.3V6.1h63c22.7,0,34,10.7,34,28.9c0,11.8-9.3,19.7-19.2,21.8v0.3C216.8,59.5,225.9,68.1,225.9,82.6z M157.4,48.4h27
	c8.2,0,13-3.8,13-11.3c0-6.9-4.1-11.5-13-11.5h-27V48.4z M201.2,80.2c0-9.5-5.8-13.1-17.2-13.1h-26.6v26.1h26.6
	C193.7,93.1,201.2,89.8,201.2,80.2z M292.3,94.8c-18.5,0-31-13.9-31-34.8c0-22.1,13.9-35.3,32.1-35.3c14.2,0,21.2,7.8,23.2,14.3
	l1.7,0.5l9.2-36.5l-1.5-0.6c-2.9,2.3-6,3.8-10.7,3.8c-5.2,0-13.4-2-23.4-2c-32.1,0-56.6,21.1-56.6,55.6c0,34.3,24.4,55.3,56.2,55.3
	c18.3,0,32.2-6.9,40.8-16l-14.3-16.9C313.2,88.4,305,94.8,292.3,94.8z M405.8,7.7l6.3,6.3c1.5,1.5,2.3,2.7,2.3,5.2v52.5
	c0,15.4-7.8,22.9-21.5,22.9c-13.7,0-21.8-7.2-21.8-22.9V19.1c0-2.4,0.8-3.7,2.3-5.2l6.3-6.3V6.1h-41.2v1.5l6.3,6.3
	c1.5,1.5,2.3,2.7,2.3,5.2V71c0,29.6,19.1,44.1,45.9,44.1c26.7,0,46-14.5,46-44.1V19.1c0-2.4,0.8-3.7,2.3-5.2l6.3-6.3V6.1h-41.5V7.7z
	"/>
</svg>
